<?xml version="1.0" standalone="no"?>
<!DOCTYPE svg PUBLIC "-//W3C//DTD SVG 20010904//EN"
 "http://www.w3.org/TR/2001/REC-SVG-20010904/DTD/svg10.dtd">
<svg version="1.0" xmlns="http://www.w3.org/2000/svg"
 width="860.000000pt" height="809.000000pt" viewBox="0 0 860.000000 809.000000"
 preserveAspectRatio="xMidYMid meet">

<g transform="translate(0.000000,809.000000) scale(0.100000,-0.100000)"
fill="#000000" stroke="none">
<path d="M7885 7649 c-99 -10 -265 -25 -370 -33 -104 -8 -275 -22 -380 -31
-318 -25 -574 -44 -690 -50 -60 -4 -211 -15 -335 -26 -206 -18 -316 -28 -800
-75 -398 -38 -904 -104 -980 -127 l-45 -14 100 -8 c133 -11 1084 1 1560 20
209 8 585 17 835 20 445 5 786 16 1163 35 252 13 297 36 297 145 -1 71 -31
132 -74 150 -42 18 -49 18 -281 -6z"/>
<path d="M4330 7201 c0 -12 10 -15 155 -46 167 -35 485 -86 800 -130 66 -9
181 -25 255 -35 130 -19 242 -34 580 -80 85 -11 202 -27 260 -36 58 -8 141
-19 185 -25 44 -6 98 -14 120 -19 37 -8 337 -55 415 -65 19 -2 80 -11 135 -19
98 -15 277 -40 525 -72 209 -27 373 -40 420 -32 26 5 54 18 70 33 23 23 25 33
25 106 0 80 0 81 -36 114 -35 32 -40 33 -145 40 -60 3 -181 13 -269 20 -88 8
-196 16 -240 20 -44 3 -152 12 -240 20 -352 33 -505 46 -615 56 -63 5 -149 14
-190 20 -92 12 -478 44 -775 64 -121 8 -240 17 -265 20 -25 3 -124 10 -220 15
-96 6 -204 13 -240 15 -288 23 -710 32 -710 16z"/>
<path d="M3470 4655 c-397 -21 -704 -64 -1095 -152 -124 -27 -165 -39 -350
-96 -528 -163 -913 -402 -1051 -652 -31 -57 -64 -171 -64 -225 0 -47 31 -165
56 -210 55 -101 96 -143 206 -208 l36 -22 -5 100 c-15 265 93 513 317 723 69
66 94 85 214 161 71 45 213 118 277 141 255 94 422 136 694 172 241 32 613 20
849 -27 27 -6 51 -9 53 -7 2 3 -2 24 -8 49 -11 39 -10 50 7 84 17 35 23 39 62
42 36 3 49 -2 86 -32 25 -21 54 -36 69 -36 17 0 48 -18 87 -51 81 -67 270
-256 270 -270 0 -14 65 25 108 65 43 39 112 129 140 181 32 58 68 163 76 216
l7 46 -133 7 c-284 14 -670 14 -908 1z"/>
<path d="M4847 4523 c-11 -150 -43 -267 -94 -343 -34 -51 -28 -55 15 -9 85 89
140 253 126 376 -5 51 -10 63 -24 63 -14 0 -18 -14 -23 -87z"/>
<path d="M5017 4478 c-8 -168 -66 -298 -184 -416 -35 -35 -63 -65 -63 -67 0
-1 15 -8 33 -16 17 -7 43 -20 57 -29 14 -9 50 -27 80 -40 30 -14 78 -39 105
-56 48 -30 52 -30 98 -18 26 6 59 20 73 29 14 9 60 28 102 42 70 23 93 25 261
27 l184 1 -7 167 c-6 163 -6 167 16 188 25 23 74 26 102 5 26 -19 34 -84 35
-261 l1 -141 28 -6 c15 -3 62 -26 104 -50 65 -38 78 -42 83 -28 22 52 55 193
55 231 0 62 17 118 40 130 28 15 72 12 98 -6 19 -13 22 -24 22 -80 0 -78 -39
-254 -77 -350 -28 -68 -28 -70 -11 -105 62 -126 28 -268 -99 -409 -31 -34 -75
-74 -97 -88 -49 -31 -152 -82 -166 -82 -6 0 -68 -28 -138 -62 l-127 -61 -165
-1 c-91 -1 -231 3 -312 8 -105 6 -196 5 -316 -4 -252 -20 -365 4 -451 94 -45
47 -54 119 -23 189 12 26 23 68 27 94 l6 48 -35 -38 c-45 -50 -66 -97 -73
-160 -20 -192 161 -310 451 -293 293 17 386 18 386 7 0 -6 -12 -13 -27 -17
-16 -3 -57 -14 -93 -25 -70 -20 -266 -59 -298 -59 -16 0 -21 -10 -27 -46 -3
-26 -9 -53 -12 -62 -6 -13 4 -14 73 -9 198 17 541 60 550 70 3 2 7 34 11 71
l6 66 128 0 c70 0 134 3 143 6 13 5 16 -2 16 -45 0 -28 2 -51 5 -51 3 0 34 7
69 16 l63 16 -8 51 c-5 28 -7 52 -6 53 10 7 234 126 241 127 10 2 18 -22 36
-104 l12 -56 67 19 c36 11 86 25 111 33 25 7 61 19 80 28 19 8 62 24 95 36
182 65 362 183 430 281 67 97 79 141 79 290 1 130 0 137 -28 190 -84 161 -237
299 -466 423 -94 51 -293 142 -355 162 -22 7 -78 27 -125 43 -233 80 -621 173
-816 197 l-51 7 -6 -104z"/>
<path d="M4675 4353 c-34 -66 -103 -166 -145 -211 -22 -24 -40 -45 -40 -48 0
-3 20 9 45 26 53 37 112 114 144 188 27 65 24 99 -4 45z"/>
<path d="M3187 3893 c-8 -8 60 -42 85 -43 23 0 32 18 18 35 -13 15 -91 21
-103 8z"/>
<path d="M2900 3775 c0 -8 -2 -20 -5 -27 -10 -25 41 -41 84 -27 20 7 42 14 50
16 22 6 6 14 -63 33 -52 14 -66 15 -66 5z"/>
<path d="M4220 3651 c0 -13 -37 -71 -82 -131 -21 -27 -38 -52 -38 -56 0 -3 11
-15 24 -25 13 -10 33 -37 44 -59 l20 -40 62 46 c34 26 64 53 67 60 2 7 -9 43
-25 81 -16 37 -35 83 -42 101 -12 30 -30 44 -30 23z"/>
<path d="M3353 3272 c-20 -12 2 -36 21 -25 14 8 15 11 4 21 -8 6 -19 8 -25 4z"/>
<path d="M3815 3194 c-24 -23 -26 -27 -13 -40 13 -13 19 -13 54 3 21 9 41 19
43 20 7 5 -32 43 -44 43 -7 0 -25 -12 -40 -26z"/>
<path d="M2939 3092 c-66 -24 -362 -120 -439 -142 -145 -41 -391 -100 -420
-100 -15 0 -20 -6 -20 -29 0 -26 4 -30 49 -41 42 -10 58 -9 122 10 41 11 108
30 149 42 138 39 375 119 455 153 17 7 59 25 95 40 117 49 112 46 93 67 -19
21 -24 21 -84 0z"/>
<path d="M4051 2944 c-24 -13 -49 -25 -54 -27 -7 -2 3 -32 24 -73 20 -38 47
-104 60 -146 l24 -78 41 0 c23 0 55 3 71 6 l30 6 -18 73 c-9 40 -35 115 -57
166 -45 106 -52 110 -121 73z"/>
<path d="M3645 2786 c-66 -22 -99 -38 -98 -47 1 -8 10 -38 20 -66 l18 -53 118
0 c133 0 129 -4 96 87 -35 99 -41 113 -48 112 -3 0 -51 -15 -106 -33z"/>
<path d="M3210 2660 l-65 -18 78 -3 c42 -2 77 -1 77 3 0 13 -12 38 -19 37 -3
-1 -35 -10 -71 -19z"/>
<path d="M6485 2486 c-70 -23 -271 -88 -375 -121 -106 -33 -218 -64 -288 -80
-39 -9 -76 -23 -83 -31 -8 -10 -10 -65 -7 -202 6 -240 6 -242 118 -242 43 0
113 7 156 16 98 20 303 99 326 125 20 24 34 153 21 206 -6 24 -18 43 -35 52
-24 14 -41 12 -203 -24 -98 -21 -186 -46 -196 -54 -22 -19 -40 -117 -27 -150
6 -18 14 -22 45 -19 32 3 39 7 46 33 17 56 22 59 123 82 54 12 109 25 122 28
22 5 23 3 20 -41 l-3 -46 -95 -39 c-85 -36 -291 -82 -304 -68 -2 2 -7 63 -11
136 l-7 132 43 11 c261 70 718 217 742 238 21 19 22 46 1 66 -21 21 -46 20
-129 -8z"/>
<path d="M1349 2359 c-15 -28 2 -67 33 -74 152 -36 446 -95 639 -126 l127 -21
6 -52 c3 -28 8 -91 12 -140 l7 -89 -95 6 c-99 7 -285 49 -305 70 -6 7 -15 29
-19 51 l-7 39 44 -6 c24 -4 79 -10 121 -13 82 -7 90 -11 105 -59 14 -42 56
-56 84 -28 20 19 20 24 8 78 -20 91 -19 90 -226 114 -203 24 -214 23 -233 -33
-11 -35 -1 -130 21 -193 12 -35 20 -39 174 -84 98 -28 125 -31 248 -33 134 -1
139 0 158 23 15 18 19 39 19 100 -1 134 -18 313 -32 327 -7 7 -63 20 -123 29
-150 22 -338 58 -596 116 -115 25 -155 25 -170 -2z"/>
<path d="M5450 2250 c-64 -9 -229 -33 -415 -60 -71 -10 -151 -22 -176 -25 -82
-10 -85 -20 -65 -193 9 -81 20 -165 22 -188 l6 -41 -213 -6 c-117 -4 -270 -7
-341 -7 l-128 0 0 154 0 155 218 3 c168 2 220 0 228 -10 11 -12 29 -100 22
-107 -2 -2 -68 -5 -147 -7 l-144 -3 -8 29 c-17 60 -61 83 -92 48 -21 -23 -21
-35 -2 -100 24 -81 27 -82 183 -82 75 0 174 3 220 7 110 8 116 16 96 128 -27
156 -35 185 -52 193 -29 14 -588 2 -609 -13 -16 -12 -18 -36 -21 -234 -3 -215
-3 -220 19 -242 l22 -22 411 7 c377 6 413 9 429 25 18 18 18 24 -1 207 -11
104 -17 192 -14 196 6 6 163 30 407 63 55 8 119 17 142 21 l41 6 6 -88 c4 -49
9 -121 12 -160 l6 -72 -54 -7 c-29 -3 -110 -17 -181 -31 -172 -33 -163 -34
-170 27 -8 62 -4 69 31 69 15 1 54 7 87 15 94 23 105 21 105 -18 0 -40 15 -57
50 -57 40 0 50 18 50 91 0 77 -5 96 -30 109 -27 14 -370 -53 -387 -76 -25 -34
-6 -242 25 -276 20 -23 33 -23 209 8 81 14 188 32 238 40 100 17 135 34 135
67 0 12 -7 103 -15 202 -8 99 -15 192 -15 207 0 54 -26 63 -140 48z"/>
<path d="M2361 2193 l-23 -19 12 -213 c10 -167 17 -217 29 -233 14 -17 46 -23
246 -44 380 -40 531 -50 549 -35 14 11 16 43 16 209 l0 195 288 -8 c158 -4
290 -9 295 -12 4 -2 7 -74 7 -159 l0 -154 -180 -2 c-99 -1 -188 -2 -197 -2
-15 -1 -18 10 -21 67 l-3 67 115 0 115 0 3 -27 c2 -17 13 -33 30 -42 24 -14
28 -14 47 3 13 12 22 37 27 73 11 87 5 89 -208 97 -233 7 -222 16 -226 -166
-3 -119 -1 -137 15 -157 l19 -23 267 7 c191 6 272 11 284 21 16 11 18 36 21
225 4 250 0 266 -62 273 -22 3 -147 8 -276 11 -129 3 -278 8 -330 11 -136 9
-130 20 -130 -223 l0 -195 -47 6 c-27 3 -93 10 -148 16 -356 35 -421 42 -426
48 -4 4 -9 69 -13 145 l-6 137 33 0 c17 0 93 -9 167 -19 74 -11 163 -23 198
-26 l62 -7 0 -50 0 -51 -117 7 c-175 11 -186 14 -196 59 -5 21 -18 42 -29 48
-27 14 -65 3 -73 -21 -9 -29 15 -137 35 -155 25 -23 425 -49 456 -30 19 12 22
27 28 128 4 62 4 122 0 131 -8 22 -44 36 -90 36 -20 0 -83 7 -142 15 -59 8
-163 22 -232 30 -69 9 -134 18 -146 21 -12 3 -30 -3 -43 -13z"/>
</g>
</svg>
