<?xml version="1.0" standalone="no"?>
<!DOCTYPE svg PUBLIC "-//W3C//DTD SVG 20010904//EN"
 "http://www.w3.org/TR/2001/REC-SVG-20010904/DTD/svg10.dtd">
<svg version="1.0" xmlns="http://www.w3.org/2000/svg"
 width="512.000000pt" height="512.000000pt" viewBox="0 0 512.000000 512.000000"
 preserveAspectRatio="xMidYMid meet">

<g transform="translate(0.000000,512.000000) scale(0.100000,-0.100000)"
fill="#000000" stroke="none">
<path d="M1650 4710 c-133 -22 -237 -114 -275 -243 -11 -38 -16 -43 -62 -58
-99 -33 -164 -90 -214 -187 -20 -40 -24 -61 -24 -142 0 -112 21 -166 95 -240
88 -89 220 -122 345 -85 l58 16 99 -98 c69 -69 98 -105 98 -121 0 -19 -4 -23
-17 -17 -164 66 -448 135 -557 135 l-51 0 -101 101 -102 101 20 57 c57 161
-38 360 -200 421 -188 71 -405 -36 -454 -222 -10 -41 -16 -48 -42 -54 -94 -20
-191 -101 -235 -194 -37 -79 -37 -201 0 -280 31 -67 102 -140 166 -170 66 -32
183 -39 254 -16 l52 17 104 -103 103 -103 0 -67 c0 -86 38 -266 85 -403 l36
-106 -35 -92 c-124 -327 -144 -685 -52 -955 67 -197 201 -392 351 -512 l68
-55 -226 -5 c-209 -5 -228 -7 -254 -26 -39 -29 -50 -79 -35 -167 37 -214 224
-397 437 -427 95 -13 3495 -13 3590 0 230 32 421 236 441 470 9 112 -33 150
-168 150 l-57 0 22 48 c21 46 22 58 22 392 0 386 -9 464 -79 705 -199 692
-759 1243 -1451 1430 -73 20 -136 47 -235 101 -321 175 -642 286 -872 301
l-86 6 -101 101 -100 101 16 45 c20 57 20 171 -1 228 -56 153 -218 248 -376
222z m127 -220 c69 -42 83 -142 30 -212 -19 -25 -27 -47 -27 -77 0 -40 5 -48
100 -145 l99 -102 -29 -17 c-16 -10 -51 -42 -77 -72 l-48 -54 -91 89 c-125
123 -147 129 -241 70 -54 -34 -93 -38 -142 -12 -99 50 -105 177 -12 239 28 19
45 22 103 21 67 -2 71 -1 99 30 26 29 28 38 27 101 -1 51 4 77 16 96 41 62
131 83 193 45z m-1079 -334 c85 -44 101 -139 37 -226 -27 -36 -32 -78 -14
-113 6 -12 52 -63 101 -114 l91 -91 -30 -15 c-30 -16 -92 -79 -111 -113 -10
-17 -20 -10 -109 77 -55 54 -110 99 -125 103 -28 6 -62 -5 -128 -44 -64 -38
-152 -14 -186 52 -53 103 25 217 140 204 59 -6 108 13 125 50 6 14 11 52 11
86 0 98 49 157 133 158 21 0 50 -6 65 -14z m1728 -371 c43 -9 135 -35 204 -58
l125 -42 -50 -7 c-27 -4 -176 -21 -330 -38 -154 -17 -298 -35 -320 -40 -74
-17 -78 -15 -71 32 25 157 171 208 442 153z m590 -316 c380 -37 741 -183 1024
-414 213 -174 385 -393 505 -640 89 -184 135 -328 170 -535 22 -126 33 -627
16 -697 -16 -63 -54 -111 -107 -134 -41 -19 -87 -19 -1506 -17 l-1463 3 -90
28 c-322 101 -558 343 -647 665 -33 116 -32 384 1 532 12 58 25 109 28 113 3
5 27 -32 54 -82 175 -326 369 -563 542 -660 348 -196 757 -148 1042 121 182
171 276 387 276 634 1 387 -185 645 -668 928 -67 39 -123 74 -123 77 0 8 113
23 385 54 338 38 397 40 561 24z m-1661 -26 c370 -71 978 -403 1158 -632 327
-416 72 -1033 -451 -1090 -182 -19 -358 30 -495 141 -200 160 -465 608 -591
995 -98 304 -85 517 36 579 69 36 184 38 343 7z m3525 -2663 c-28 -55 -87
-112 -146 -141 l-49 -24 -1785 -3 c-1985 -3 -1844 -7 -1937 66 -26 22 -61 62
-76 90 l-28 52 2021 0 2020 0 -20 -40z"/>
<path d="M3699 3077 c-74 -49 -58 -134 35 -191 64 -40 110 -39 148 3 55 62 23
143 -76 190 -54 26 -65 26 -107 -2z"/>
<path d="M3979 2822 c-24 -22 -31 -36 -31 -66 0 -41 12 -60 113 -183 182 -219
300 -487 345 -778 7 -49 14 -117 14 -150 1 -97 15 -146 47 -172 51 -41 120
-25 149 35 14 29 15 53 10 138 -19 279 -77 495 -196 730 -76 150 -181 303
-278 404 -60 62 -71 70 -104 70 -27 0 -47 -8 -69 -28z"/>
</g>
</svg>
