<svg xmlns="http://www.w3.org/2000/svg" xmlns:xlink="http://www.w3.org/1999/xlink" version="1.1" width="1000" height="1000" viewBox="0 0 1000 1000" xml:space="preserve">
<desc>Created with Fabric.js 3.5.0</desc>
<defs>
</defs>
<rect x="0" y="0" width="100%" height="100%" fill="#111010"/>
<g transform="matrix(1.3859 0 0 1.3859 499.999 499.999)" id="173501">
<g style="" vector-effect="non-scaling-stroke">
		<g transform="matrix(0.1333 0 0 -0.1333 -0.0577 0.2933)">
<path style="stroke: none; stroke-width: 1; stroke-dasharray: none; stroke-linecap: butt; stroke-dashoffset: 0; stroke-linejoin: miter; stroke-miterlimit: 4; is-custom-font: none; font-file-url: none; fill: rgb(254,250,250); fill-rule: nonzero; opacity: 1;" transform=" translate(-2560.2069, -2557.2608)" d="M 1650 4710 c -133 -22 -237 -114 -275 -243 c -11 -38 -16 -43 -62 -58 c -99 -33 -164 -90 -214 -187 c -20 -40 -24 -61 -24 -142 c 0 -112 21 -166 95 -240 c 88 -89 220 -122 345 -85 l 58 16 l 99 -98 c 69 -69 98 -105 98 -121 c 0 -19 -4 -23 -17 -17 c -164 66 -448 135 -557 135 l -51 0 l -101 101 l -102 101 l 20 57 c 57 161 -38 360 -200 421 c -188 71 -405 -36 -454 -222 c -10 -41 -16 -48 -42 -54 c -94 -20 -191 -101 -235 -194 c -37 -79 -37 -201 0 -280 c 31 -67 102 -140 166 -170 c 66 -32 183 -39 254 -16 l 52 17 l 104 -103 l 103 -103 l 0 -67 c 0 -86 38 -266 85 -403 l 36 -106 l -35 -92 c -124 -327 -144 -685 -52 -955 c 67 -197 201 -392 351 -512 l 68 -55 l -226 -5 c -209 -5 -228 -7 -254 -26 c -39 -29 -50 -79 -35 -167 c 37 -214 224 -397 437 -427 c 95 -13 3495 -13 3590 0 c 230 32 421 236 441 470 c 9 112 -33 150 -168 150 l -57 0 l 22 48 c 21 46 22 58 22 392 c 0 386 -9 464 -79 705 c -199 692 -759 1243 -1451 1430 c -73 20 -136 47 -235 101 c -321 175 -642 286 -872 301 l -86 6 l -101 101 l -100 101 l 16 45 c 20 57 20 171 -1 228 c -56 153 -218 248 -376 222 z m 127 -220 c 69 -42 83 -142 30 -212 c -19 -25 -27 -47 -27 -77 c 0 -40 5 -48 100 -145 l 99 -102 l -29 -17 c -16 -10 -51 -42 -77 -72 l -48 -54 l -91 89 c -125 123 -147 129 -241 70 c -54 -34 -93 -38 -142 -12 c -99 50 -105 177 -12 239 c 28 19 45 22 103 21 c 67 -2 71 -1 99 30 c 26 29 28 38 27 101 c -1 51 4 77 16 96 c 41 62 131 83 193 45 z m -1079 -334 c 85 -44 101 -139 37 -226 c -27 -36 -32 -78 -14 -113 c 6 -12 52 -63 101 -114 l 91 -91 l -30 -15 c -30 -16 -92 -79 -111 -113 c -10 -17 -20 -10 -109 77 c -55 54 -110 99 -125 103 c -28 6 -62 -5 -128 -44 c -64 -38 -152 -14 -186 52 c -53 103 25 217 140 204 c 59 -6 108 13 125 50 c 6 14 11 52 11 86 c 0 98 49 157 133 158 c 21 0 50 -6 65 -14 z m 1728 -371 c 43 -9 135 -35 204 -58 l 125 -42 l -50 -7 c -27 -4 -176 -21 -330 -38 c -154 -17 -298 -35 -320 -40 c -74 -17 -78 -15 -71 32 c 25 157 171 208 442 153 z m 590 -316 c 380 -37 741 -183 1024 -414 c 213 -174 385 -393 505 -640 c 89 -184 135 -328 170 -535 c 22 -126 33 -627 16 -697 c -16 -63 -54 -111 -107 -134 c -41 -19 -87 -19 -1506 -17 l -1463 3 l -90 28 c -322 101 -558 343 -647 665 c -33 116 -32 384 1 532 c 12 58 25 109 28 113 c 3 5 27 -32 54 -82 c 175 -326 369 -563 542 -660 c 348 -196 757 -148 1042 121 c 182 171 276 387 276 634 c 1 387 -185 645 -668 928 c -67 39 -123 74 -123 77 c 0 8 113 23 385 54 c 338 38 397 40 561 24 z m -1661 -26 c 370 -71 978 -403 1158 -632 c 327 -416 72 -1033 -451 -1090 c -182 -19 -358 30 -495 141 c -200 160 -465 608 -591 995 c -98 304 -85 517 36 579 c 69 36 184 38 343 7 z m 3525 -2663 c -28 -55 -87 -112 -146 -141 l -49 -24 l -1785 -3 c -1985 -3 -1844 -7 -1937 66 c -26 22 -61 62 -76 90 l -28 52 l 2021 0 l 2020 0 l -20 -40 z" stroke-linecap="round"/>
</g>
		<g transform="matrix(0.1333 0 0 -0.1333 162.7402 -55.67)">
<path style="stroke: none; stroke-width: 1; stroke-dasharray: none; stroke-linecap: butt; stroke-dashoffset: 0; stroke-linejoin: miter; stroke-miterlimit: 4; is-custom-font: none; font-file-url: none; fill: rgb(254,250,250); fill-rule: nonzero; opacity: 1;" transform=" translate(-3780.5835, -2977.4943)" d="M 3699 3077 c -74 -49 -58 -134 35 -191 c 64 -40 110 -39 148 3 c 55 62 23 143 -76 190 c -54 26 -65 26 -107 -2 z" stroke-linecap="round"/>
</g>
		<g transform="matrix(0.1333 0 0 -0.1333 230.4383 54.6276)">
<path style="stroke: none; stroke-width: 1; stroke-dasharray: none; stroke-linecap: butt; stroke-dashoffset: 0; stroke-linejoin: miter; stroke-miterlimit: 4; is-custom-font: none; font-file-url: none; fill: rgb(254,250,250); fill-rule: nonzero; opacity: 1;" transform=" translate(-4288.3726, -2150.1181)" d="M 3979 2822 c -24 -22 -31 -36 -31 -66 c 0 -41 12 -60 113 -183 c 182 -219 300 -487 345 -778 c 7 -49 14 -117 14 -150 c 1 -97 15 -146 47 -172 c 51 -41 120 -25 149 35 c 14 29 15 53 10 138 c -19 279 -77 495 -196 730 c -76 150 -181 303 -278 404 c -60 62 -71 70 -104 70 c -27 0 -47 -8 -69 -28 z" stroke-linecap="round"/>
</g>
</g>
</g>
</svg>