<svg xmlns="http://www.w3.org/2000/svg" xmlns:xlink="http://www.w3.org/1999/xlink" version="1.1" width="1000" height="1000" viewBox="0 0 1000 1000" xml:space="preserve">
<desc>Created with Fabric.js 3.5.0</desc>
<defs>
</defs>
<rect x="0" y="0" width="100%" height="100%" fill="#151414"/>
<g transform="matrix(0.6107 0 0 0.6107 499.9597 499.9597)" id="337683">
<g style="" vector-effect="non-scaling-stroke">
		<g transform="matrix(0.1333 0 0 -0.1333 11.4152 -25.3456)">
<path style="stroke: none; stroke-width: 1; stroke-dasharray: none; stroke-linecap: butt; stroke-dashoffset: 0; stroke-linejoin: miter; stroke-miterlimit: 4; is-custom-font: none; font-file-url: none; fill: rgb(252,248,248); fill-rule: nonzero; opacity: 1;" transform=" translate(-6227.0381, -6328.705)" d="M 5700 11870 c -485 -33 -1154 -196 -1655 -405 c -833 -346 -1537 -854 -2130 -1535 c -114 -132 -353 -450 -448 -598 c -297 -460 -522 -936 -673 -1420 c -50 -161 -132 -481 -164 -639 c -108 -537 -132 -1274 -59 -1843 c 159 -1256 734 -2424 1639 -3331 c 153 -153 359 -338 485 -435 c 140 -108 243 -184 249 -184 c 4 0 57 33 119 74 c 62 40 204 129 317 196 c 475 286 719 476 828 643 c 125 194 271 567 363 927 c 27 107 57 212 66 233 c 26 59 55 49 155 -56 c 37 -39 70 -68 73 -65 c 3 3 12 85 20 182 c 8 98 19 184 23 193 c 15 26 39 -10 141 -207 c 318 -614 708 -1158 1124 -1569 l 86 -84 l 78 27 c 199 70 394 196 560 363 c 110 111 138 132 128 100 c -2 -7 -27 -100 -55 -207 c -29 -107 -71 -262 -95 -345 c -24 -82 -60 -213 -80 -290 l -37 -139 l 25 -22 c 17 -15 66 -31 144 -49 c 466 -107 566 -137 750 -225 c 158 -76 272 -154 404 -278 l 105 -100 l 185 82 c 518 232 935 475 1318 770 c 426 327 884 795 1157 1181 c 580 819 958 1799 1049 2724 c 40 410 40 938 0 1320 c -46 431 -186 980 -363 1421 c -182 454 -396 845 -703 1280 c -207 295 -613 731 -919 990 c -633 534 -1357 915 -2155 1134 c -265 72 -664 153 -870 176 c -126 14 -1018 21 -1185 10 z m 1134 -234 c 149 -39 407 -168 383 -192 c -4 -5 -117 -12 -250 -16 c -398 -12 -504 -34 -811 -167 c -59 -26 -231 -123 -266 -150 c -14 -11 -22 -23 -18 -26 c 3 -4 57 5 120 19 c 270 60 631 62 1018 6 c 451 -66 906 -231 1405 -510 c 448 -250 799 -512 1656 -1235 c 163 -137 418 -352 566 -477 c 342 -288 397 -345 462 -480 c 28 -57 53 -116 57 -132 c 7 -28 6 -29 -22 -22 c -46 12 -165 70 -267 130 c -166 97 -434 316 -742 606 c -142 133 -193 176 -201 168 c -3 -3 29 -55 70 -114 c 241 -351 378 -589 829 -1444 c 134 -256 270 -508 300 -561 c 48 -83 87 -162 87 -175 c 0 -15 -89 46 -160 109 c -184 162 -408 406 -556 603 c -82 110 -101 131 -110 122 c -2 -3 11 -79 30 -169 c 115 -549 100 -1117 -40 -1538 c -73 -218 -217 -497 -362 -700 c -49 -70 -122 -154 -128 -148 c -2 2 15 53 37 113 c 56 148 123 426 149 619 c 13 100 25 516 16 541 c -10 26 -14 18 -71 -141 c -92 -257 -242 -520 -361 -635 c -56 -55 -57 -55 -51 -23 c 4 17 26 78 51 136 c 54 127 99 271 123 392 c 22 118 24 498 2 559 c -8 22 -19 41 -26 43 c -6 2 -21 -16 -32 -41 c -27 -61 -68 -121 -170 -246 c -107 -130 -234 -260 -255 -260 c -19 0 -17 10 20 130 c 85 276 134 587 133 845 c 0 201 -44 519 -80 587 c -16 29 -29 21 -29 -17 c 0 -121 -78 -352 -205 -610 c -103 -210 -210 -378 -336 -530 c -111 -133 -353 -374 -460 -457 c -100 -78 -278 -188 -436 -270 c -105 -54 -143 -68 -143 -52 c 0 12 111 254 171 376 c 201 402 340 835 393 1216 c 18 125 21 287 7 277 c -5 -3 -29 -45 -54 -94 c -54 -108 -144 -245 -246 -371 c -93 -117 -284 -309 -370 -373 c -118 -88 -374 -237 -387 -225 c -3 3 30 52 74 109 c 43 57 99 131 124 164 c 72 95 214 306 274 407 c 52 88 63 118 46 118 c -5 0 -55 -41 -113 -91 c -217 -191 -528 -408 -1154 -809 c -148 -95 -340 -221 -425 -280 c -139 -96 -209 -140 -224 -140 c -7 0 0 19 89 220 c 123 280 267 560 576 1120 c 202 368 282 520 277 525 c -5 6 -87 -79 -323 -334 c -174 -188 -366 -373 -490 -473 c -101 -80 -303 -208 -330 -208 c -18 0 4 36 65 110 c 134 160 318 428 380 549 c 34 69 36 81 14 81 c -25 0 -181 -82 -349 -183 c -369 -222 -653 -436 -1020 -770 c -116 -106 -152 -133 -162 -124 c -12 12 211 630 318 883 c 111 264 262 593 381 831 c 60 122 108 228 106 235 c -3 8 -22 -6 -50 -37 c -72 -78 -332 -408 -444 -561 c -139 -191 -402 -577 -444 -652 c -49 -87 -69 -83 -92 18 c -80 336 -108 522 -108 707 c 0 169 33 359 106 603 c 14 47 28 94 31 105 c 5 18 4 18 -11 6 c -35 -29 -181 -299 -263 -486 c -61 -139 -159 -371 -195 -460 c -88 -222 -160 -385 -169 -385 c -25 0 -63 161 -85 363 c -4 31 -10 57 -15 57 c -30 0 -135 -505 -160 -763 c -15 -161 -7 -569 15 -727 c 85 -627 187 -918 539 -1532 c 177 -308 277 -494 323 -598 c 37 -83 38 -89 42 -225 c 5 -171 -14 -298 -57 -384 c -29 -57 -56 -89 -67 -78 c -3 3 -12 56 -19 119 c -42 351 -188 705 -515 1243 c -318 523 -462 795 -570 1080 c -213 561 -288 1106 -224 1627 c 60 491 268 1068 543 1508 c 79 128 79 135 -12 105 c -77 -25 -261 -118 -349 -175 c -198 -131 -354 -326 -456 -571 c -79 -191 -124 -368 -176 -699 c -51 -321 -46 -285 -66 -449 c -6 -46 -15 -92 -20 -102 c -33 -60 -352 -142 -433 -110 c -34 13 -32 23 34 178 c 59 138 146 377 278 766 c 116 339 144 415 231 617 c 114 266 240 498 361 661 c 78 105 241 273 334 344 c 247 189 623 335 930 360 c 101 8 115 12 115 35 c 0 14 -10 20 -42 25 c -24 4 -52 9 -63 11 c -11 2 -83 13 -160 25 c -76 11 -145 25 -152 30 c -25 22 -47 160 -48 304 c 0 152 14 216 75 351 c 123 271 430 510 764 594 c 140 35 152 36 166 10 c 21 -40 -47 -299 -170 -640 c -168 -470 -184 -520 -160 -505 c 6 4 56 68 112 143 c 296 400 624 711 985 936 c 354 220 643 309 978 302 c 132 -3 177 -8 259 -30 z m -2523 -5056 c 81 -16 123 -40 129 -75 c 13 -70 -14 -92 -85 -69 c -63 22 -175 15 -232 -15 c -47 -24 -117 -114 -174 -226 c -27 -52 -31 -67 -21 -74 c 8 -4 66 -11 130 -14 c 119 -6 236 -26 295 -51 c 40 -16 75 -61 92 -120 c 16 -52 10 -63 -58 -110 c -63 -44 -86 -79 -94 -145 c -7 -63 19 -182 58 -260 c 36 -72 147 -181 184 -181 c 27 0 50 28 60 75 c 17 79 48 115 99 115 c 39 0 71 -49 178 -270 c 105 -218 283 -526 346 -599 c 24 -28 44 -42 53 -39 c 9 4 25 48 43 117 c 60 245 213 599 333 769 c 94 133 264 302 304 302 c 10 0 60 -57 119 -136 c 110 -146 260 -307 267 -287 c 3 7 -27 79 -66 161 c -80 169 -87 208 -45 241 c 15 12 31 21 37 21 c 26 0 49 -41 78 -134 c 40 -131 57 -163 114 -215 c 110 -101 342 -162 449 -117 c 107 45 172 158 191 334 l 7 64 l 146 -144 c 156 -153 173 -160 133 -53 c -29 78 -30 78 35 70 l 56 -7 l -25 34 c -14 18 -64 70 -111 115 c -104 99 -184 141 -391 204 c -153 46 -201 64 -209 77 c -8 13 29 43 108 90 l 69 41 l 117 -59 c 64 -32 131 -70 148 -85 c 28 -23 30 -28 20 -55 c -17 -50 -6 -62 49 -55 c 27 4 72 13 101 21 c 50 14 59 13 135 -6 c 96 -25 136 -47 144 -78 c 3 -12 -2 -65 -11 -118 c -18 -108 -21 -174 -6 -174 c 26 0 343 152 524 252 c 118 65 324 200 451 296 c 57 43 184 161 298 275 c 230 232 233 232 137 1 c -63 -151 -77 -194 -65 -194 c 4 0 55 23 112 51 c 57 28 107 48 111 44 c 19 -19 -209 -202 -329 -265 c -42 -22 -94 -59 -116 -83 c -42 -46 -131 -212 -120 -224 c 4 -3 25 -1 48 6 c 56 17 441 211 624 315 c 82 47 163 90 179 96 l 29 10 l -7 -69 c -8 -92 -60 -293 -92 -358 c -28 -58 -63 -83 -114 -83 c -34 0 -37 10 -14 46 c 9 13 15 26 13 28 c -2 2 -44 -3 -94 -11 c -49 -7 -145 -20 -213 -28 c -230 -28 -352 -65 -402 -122 c -34 -39 -130 -225 -130 -253 c 0 -9 13 -20 32 -25 c 36 -11 78 -65 78 -100 c 0 -12 9 -30 21 -41 c 18 -16 37 -19 123 -19 c 96 0 105 2 138 27 c 46 35 92 127 113 226 c 32 151 45 168 103 138 c 48 -25 57 -43 57 -115 c -1 -51 -8 -84 -33 -145 c -18 -43 -31 -80 -29 -82 c 10 -11 145 166 188 249 c 47 88 95 147 120 147 c 17 0 9 -29 -45 -152 c -110 -253 -155 -418 -222 -818 c -67 -396 -79 -437 -184 -637 c -147 -280 -313 -484 -842 -1033 c -352 -366 -378 -386 -498 -384 c -370 6 -1547 722 -2167 1318 c -208 200 -312 346 -488 691 c -48 94 -98 185 -112 202 c -34 46 -102 83 -172 93 c -170 24 -405 218 -573 474 c -296 451 -329 983 -78 1269 c 91 103 193 135 341 107 z m 1469 -12 c -1 -16 -48 -102 -137 -249 c -93 -152 -202 -357 -292 -549 c -155 -328 -183 -382 -191 -374 c -17 18 -33 184 -33 359 c 0 236 41 602 78 691 c 18 44 64 59 292 99 c 206 36 283 42 283 23 z m 1599 -337 c -16 -47 -71 -104 -91 -96 c -37 15 -11 60 62 108 c 35 24 40 21 29 -12 z m 253 -192 c -4 -32 -24 -51 -45 -43 c -23 8 -21 23 5 51 c 26 28 44 25 40 -8 z" stroke-linecap="round"/>
</g>
		<g transform="matrix(0.1333 0 0 -0.1333 292.6644 250.0063)">
<path style="stroke: none; stroke-width: 1; stroke-dasharray: none; stroke-linecap: butt; stroke-dashoffset: 0; stroke-linejoin: miter; stroke-miterlimit: 4; is-custom-font: none; font-file-url: none; fill: rgb(252,248,248); fill-rule: nonzero; opacity: 1;" transform=" translate(-8335, -4264.9365)" d="M 8352 4314 c -25 -17 -82 -91 -82 -106 c 0 -29 81 26 111 76 c 10 17 19 34 19 39 c 0 12 -24 8 -48 -9 z" stroke-linecap="round"/>
</g>
		<g transform="matrix(0.1333 0 0 -0.1333 223.752 333.9449)">
<path style="stroke: none; stroke-width: 1; stroke-dasharray: none; stroke-linecap: butt; stroke-dashoffset: 0; stroke-linejoin: miter; stroke-miterlimit: 4; is-custom-font: none; font-file-url: none; fill: rgb(252,248,248); fill-rule: nonzero; opacity: 1;" transform=" translate(-7818.2381, -3635.4001)" d="M 7705 3683 c -398 -40 -369 -62 75 -55 l 275 5 l 74 -27 c 41 -15 76 -24 80 -21 c 9 10 -14 39 -58 70 l -43 30 l -181 1 c -100 1 -200 0 -222 -3 z" stroke-linecap="round"/>
</g>
		<g transform="matrix(0.1333 0 0 -0.1333 -297.0107 40.1931)">
<path style="stroke: none; stroke-width: 1; stroke-dasharray: none; stroke-linecap: butt; stroke-dashoffset: 0; stroke-linejoin: miter; stroke-miterlimit: 4; is-custom-font: none; font-file-url: none; fill: rgb(252,248,248); fill-rule: nonzero; opacity: 1;" transform=" translate(-3913.3967, -5837.0938)" d="M 3330 11599 c -1693 -883 -2855 -2436 -3219 -4299 c -78 -402 -105 -701 -105 -1160 c 0 -379 10 -532 55 -860 c 206 -1484 971 -2865 2127 -3838 c 876 -738 1967 -1225 3092 -1381 c 328 -45 481 -55 860 -55 c 477 0 804 32 1230 119 c 166 34 440 102 449 111 c 8 7 -9 4 -87 -16 c -43 -10 -133 -31 -202 -46 c -69 -14 -134 -28 -145 -30 c -185 -40 -507 -79 -773 -95 c -394 -23 -1020 7 -1377 67 c -815 136 -1597 439 -2330 901 c -508 322 -961 724 -1375 1223 c -691 833 -1094 1686 -1314 2780 c -72 358 -93 554 -102 945 c -12 541 23 1014 102 1375 c 129 588 246 950 464 1435 c 181 402 466 859 774 1240 c 217 268 521 586 756 791 c 381 331 820 632 1208 828 c 28 14 52 29 52 31 c 0 7 4 9 -140 -66 z" stroke-linecap="round"/>
</g>
		<g transform="matrix(0.1333 0 0 -0.1333 72.9673 711.9387)">
<path style="stroke: none; stroke-width: 1; stroke-dasharray: none; stroke-linecap: butt; stroke-dashoffset: 0; stroke-linejoin: miter; stroke-miterlimit: 4; is-custom-font: none; font-file-url: none; fill: rgb(252,248,248); fill-rule: nonzero; opacity: 1;" transform=" translate(-6687.2648, -800.3829)" d="M 6707 1093 c -8 -10 -26 -47 -38 -83 c -20 -56 -23 -85 -24 -215 c 0 -153 15 -241 50 -289 c 21 -28 36 -11 22 27 c -20 55 -15 368 9 530 c 7 52 5 56 -19 30 z" stroke-linecap="round"/>
</g>
		<g transform="matrix(0.1333 0 0 -0.1333 227.4478 785.9742)">
<path style="stroke: none; stroke-width: 1; stroke-dasharray: none; stroke-linecap: butt; stroke-dashoffset: 0; stroke-linejoin: miter; stroke-miterlimit: 4; is-custom-font: none; font-file-url: none; fill: rgb(252,248,248); fill-rule: nonzero; opacity: 1;" transform=" translate(-7845.8618, -245.1924)" d="M 7838 243 c 7 -3 16 -2 19 1 c 4 3 -2 6 -13 5 c -11 0 -14 -3 -6 -6 z" stroke-linecap="round"/>
</g>
</g>
</g>
</svg>